# xmcd
#
# Track frame offsets:
#	150
#	13721
#	26219
#	37160
#	50638
#	61196
#	72814
#	86751
#	97940
#	104576
#	118690
#	132292
#	142893
#	151832
#	166191
#	175050
#	192532
#
# Disc length: 2682 seconds
#
# Revision: 0
# Processed by: cddbd v1.5.2PL0 Copyright (c) Steve Scherf et al.
# Submitted via: audiograbber 1.83.01
#
DISCID=e80a7811
DTITLE=The Hillmen - The Hillmen
DYEAR=2012
DGENRE=Country
TTITLE0=Fair And Tender Ladies
TTITLE1=Winsborough Cotton Mill Blues
TTITLE2=Wheel Hoss
TTITLE3=Fare Thee Well
TTITLE4=Go'in Up
TTITLE5=With These Chains
TTITLE6=When The Ship Comes In
TTITLE7=Roll On Muddy River
TTITLE8=Bluegrass Chopper
TTITLE9=Ranger's Command
TTITLE10=Prisoner's Plea
TTITLE11=Brown Mountain Light
TTITLE12=Sangeree
TTITLE13=Barbara Allen
TTITLE14=Back Road Fever
TTITLE15=Copper Kettle
TTITLE16=Salt Creek
EXTD=
EXTT0=
EXTT1=
EXTT2=
EXTT3=
EXTT4=
EXTT5=
EXTT6=
EXTT7=
EXTT8=
EXTT9=
EXTT10=
EXTT11=
EXTT12=
EXTT13=
EXTT14=
EXTT15=
EXTT16=
PLAYORDER=
